<?xml version="1.0" encoding="iso-8859-1"?>
<!-- Generator: Adobe Illustrator 18.0.0, SVG Export Plug-In . SVG Version: 6.00 Build 0)  -->
<!DOCTYPE svg PUBLIC "-//W3C//DTD SVG 1.1//EN" "http://www.w3.org/Graphics/SVG/1.1/DTD/svg11.dtd">
<svg version="1.1" id="Capa_1" xmlns="http://www.w3.org/2000/svg" xmlns:xlink="http://www.w3.org/1999/xlink" x="0px" y="0px"
	 viewBox="0 0 59.994 59.994" style="enable-background:new 0 0 59.994 59.994;" xml:space="preserve">
<g>
	<path d="M28.994,0l-1.068,0.072C13.061,1.086,1.086,13.061,0.073,27.926L0,28.994h28.994V0z"/>
	<path d="M52.741,10.438C47.458,4.303,40.114,0.622,32.062,0.072L30.994,0v30.994H0l0.073,1.068
		c0.444,6.511,2.941,12.572,7.222,17.529c0.384,0.444,0.814,0.887,1.395,1.436l1.525,1.441c0.582,0.551,1.048,0.955,1.512,1.311
		c5.281,4.065,11.598,6.215,18.267,6.215c0.786,0,1.584-0.031,2.373-0.092c14.516-1.119,26.349-12.9,27.525-27.405
		C60.55,24.393,58.01,16.558,52.741,10.438z"/>
</g>
<g>
</g>
<g>
</g>
<g>
</g>
<g>
</g>
<g>
</g>
<g>
</g>
<g>
</g>
<g>
</g>
<g>
</g>
<g>
</g>
<g>
</g>
<g>
</g>
<g>
</g>
<g>
</g>
<g>
</g>
</svg>
